<svg xmlns="http://www.w3.org/2000/svg" id="Layer_1" viewBox="0 0 32 32"><g id="KNn5AD.tif"><path d="m19.3,15.95c-.09-.08-.18-.14-.26-.22-3.47-3.45-6.94-6.9-10.41-10.35-.75-.74-.81-1.88-.17-2.66.73-.88,2.04-.96,2.86-.16,1.01.99,2.01,1.99,3.01,2.98,3,2.98,5.99,5.96,8.99,8.93.39.39.64.84.67,1.39.03.6-.19,1.1-.61,1.53-.85.85-1.7,1.71-2.54,2.56-3.11,3.14-6.23,6.28-9.34,9.42-.74.74-1.83.84-2.62.23-.94-.72-1.03-2.08-.19-2.94,1.42-1.44,2.85-2.88,4.28-4.32,2.07-2.08,4.14-4.17,6.2-6.25.04-.04.07-.08.14-.15Z" style="stroke-width:0px;" fill="#263fa9"/></g></svg>