<?xml version="1.0" encoding="UTF-8"?><svg id="Layer_1" xmlns="http://www.w3.org/2000/svg" viewBox="0 0 32 32"><g id="jXWtgM.tif"><path d="m26.45,18.95c0,1.22,0,2.39,0,3.55-.01,1.34-.94,2.44-2.22,2.6-.57.07-1.15.03-1.72.03-.44,0-.88,0-1.36,0,0,.2,0,.36,0,.52,0,1.04,0,2.08,0,3.12,0,1.17-.83,1.93-1.99,1.83-2.46-.21-4.92-.43-7.38-.65-.37-.03-.73-.06-1.1-.09-1.14-.08-1.8-.78-1.81-1.92,0-1.8,0-3.6,0-5.39,0-.35-.1-.58-.36-.81-2.2-1.95-3.54-4.4-4.06-7.29C3.39,8.53,7.33,2.76,13.21,1.61c6.11-1.19,11.84,2.69,13.04,8.82.03.15.07.3.07.45-.01.7.31,1.26.69,1.81.68,1,1.33,2.03,2,3.04.46.69.55,1.4.16,2.14-.4.75-1.06,1.08-1.9,1.07-.26,0-.52,0-.82,0Zm-7.08,10c0-.14,0-.26,0-.37,0-1.2,0-2.4.02-3.61,0-.98.56-1.53,1.53-1.53.9,0,1.8,0,2.7,0,.77,0,1.08-.31,1.08-1.08,0-1.3,0-2.6,0-3.9,0-.69.51-1.18,1.19-1.2.43,0,.87.01,1.3-.01.15,0,.38-.07.43-.17.06-.11-.02-.33-.1-.46-.64-1-1.28-2.01-1.97-2.98-.54-.77-.94-1.58-.97-2.53,0-.11-.03-.21-.05-.32-1-5.08-5.51-8.27-10.64-7.51-4.92.73-8.47,5.44-7.82,10.36.36,2.73,1.55,5.05,3.61,6.89.6.54.9,1.18.89,2-.02,1.77,0,3.53-.01,5.3,0,.27.08.34.34.36,2.02.17,4.03.36,6.05.55.8.07,1.59.14,2.43.22Z" style="stroke-width:0px;"/><path d="m11.03,14.92h1.63v-1.42c-.77,0-1.53,0-2.3,0-.07,0-.15.1-.21.17-.46.53-1.2.59-1.7.13-.49-.46-.49-1.22,0-1.68.5-.47,1.25-.41,1.7.12.06.08.16.18.24.18.76.01,1.51,0,2.28,0v-1.41h-1.64c0-.55,0-1.08,0-1.61,0-.29-.04-.51-.29-.73-.46-.41-.44-1.12-.02-1.58.43-.46,1.11-.51,1.58-.1.47.41.6,1.2.14,1.59-.46.39-.32.83-.34,1.32h1.64v6.04h-1.65c0,.34-.01.64,0,.93,0,.08.09.16.15.22.54.46.61,1.23.14,1.73-.45.48-1.22.47-1.68-.02-.46-.5-.4-1.24.12-1.7.1-.08.17-.25.17-.38.02-.59,0-1.19,0-1.82Z" style="stroke-width:0px;"/><path d="m17.33,9.93h1.65c0-.33,0-.64,0-.95,0-.07-.09-.14-.15-.19-.55-.46-.62-1.21-.16-1.72.44-.49,1.22-.49,1.68,0,.48.51.41,1.25-.13,1.73-.09.08-.16.23-.16.34-.02.59,0,1.19,0,1.83h-1.63v1.42c.77,0,1.53,0,2.28,0,.08,0,.18-.1.24-.17.37-.42.92-.55,1.41-.32.44.2.71.68.65,1.14-.07.54-.48.95-1.03,1.01-.42.05-.76-.11-1.04-.42-.07-.08-.18-.18-.27-.18-.73-.01-1.47,0-2.24,0v1.41h1.66c0,.57,0,1.12,0,1.67,0,.26.04.45.26.64.47.4.47,1.12.05,1.57-.43.46-1.15.5-1.61.09-.46-.4-.56-1.17-.11-1.56.36-.31.33-.64.33-1,0-.11,0-.21-.01-.34h-1.65v-5.98Z" style="stroke-width:0px;"/><path d="m14.36,18.65c0-.36.16-.64.42-.88.09-.09.18-.24.18-.37,0-3.01,0-6.02,0-9.03,0-.12-.08-.26-.16-.34-.52-.46-.59-1.18-.13-1.67.45-.48,1.22-.5,1.69-.04.47.46.46,1.22-.06,1.67-.17.15-.23.3-.23.52,0,2.94,0,5.89,0,8.83,0,.18.03.31.19.44.43.33.55.92.31,1.4-.25.49-.8.74-1.34.61-.53-.13-.88-.6-.87-1.15Z" style="stroke-width:0px;"/></g></svg>