<?xml version="1.0" encoding="UTF-8"?><svg id="Layer_1" xmlns="http://www.w3.org/2000/svg" viewBox="0 0 32 32"><g id="settings"><path d="m30.39,12.68l-3.06-.61c-.15-.44-.34-.87-.54-1.29l1.74-2.6c.53-.79.42-1.85-.25-2.52l-1.92-1.92c-.39-.39-.9-.59-1.42-.59-.38,0-.77.11-1.11.34l-2.6,1.73c-.42-.2-.85-.38-1.29-.54l-.61-3.07C19.13.67,18.31,0,17.36,0h-2.72c-.95,0-1.77.67-1.96,1.61l-.61,3.07c-.44.15-.87.34-1.29.54l-2.6-1.74c-.34-.23-.72-.34-1.11-.34-.52,0-1.03.2-1.41.59l-1.92,1.92c-.67.67-.78,1.73-.25,2.52l1.74,2.6c-.2.42-.38.85-.54,1.29l-3.07.61c-.94.19-1.61,1.01-1.61,1.96v2.72c0,.95.67,1.77,1.61,1.96l3.07.61c.15.44.34.87.54,1.29l-1.73,2.6c-.53.79-.42,1.85.25,2.52l1.92,1.92c.39.39.9.59,1.41.59.38,0,.77-.11,1.11-.34l2.6-1.74c.42.2.85.38,1.29.54l.61,3.06c.19.94,1.01,1.61,1.96,1.61h2.72c.95,0,1.77-.67,1.96-1.61l.61-3.06c.44-.15.87-.34,1.29-.54l2.6,1.74c.34.23.73.34,1.11.34.52,0,1.03-.2,1.42-.59l1.92-1.92c.67-.67.78-1.73.25-2.52l-1.74-2.6c.2-.42.38-.85.54-1.29l3.06-.61c.94-.18,1.61-1.01,1.61-1.96v-2.72c0-.95-.67-1.77-1.61-1.96Zm-3.46,5.3c-.69.14-1.26.64-1.5,1.31-.13.37-.28.73-.45,1.07-.31.64-.26,1.39.14,1.98l1.74,2.6-1.92,1.92-2.6-1.74c-.33-.22-.72-.34-1.11-.34-.3,0-.6.07-.87.2-.35.17-.7.32-1.08.45-.67.23-1.16.8-1.3,1.5l-.61,3.07h-2.72l-.61-3.07c-.14-.69-.64-1.26-1.3-1.5-.37-.13-.73-.28-1.07-.45-.28-.14-.57-.2-.87-.2-.39,0-.77.11-1.11.34l-2.6,1.74-1.92-1.92,1.74-2.6c.39-.59.44-1.34.14-1.98-.17-.35-.32-.7-.45-1.08-.23-.67-.8-1.16-1.5-1.3l-3.07-.61v-2.72s3.06-.61,3.06-.61c.69-.14,1.26-.64,1.5-1.3.13-.37.28-.73.45-1.07.31-.64.26-1.39-.14-1.98l-1.73-2.6,1.92-1.92,2.6,1.74c.33.22.72.34,1.11.34.3,0,.6-.07.87-.2.35-.17.7-.32,1.07-.45.67-.23,1.16-.8,1.3-1.5l.61-3.07h2.72s.61,3.07.61,3.07c.14.69.64,1.26,1.31,1.5.37.13.73.28,1.07.45.28.13.57.2.87.2.39,0,.77-.11,1.11-.34l2.6-1.74,1.92,1.92-1.74,2.6c-.39.59-.44,1.34-.14,1.98.17.35.32.7.45,1.07.23.67.8,1.16,1.5,1.3l3.06.61v2.72s-3.06.61-3.06.61Z" style="stroke-width:0px;"/><path d="m16,9c-3.86,0-7,3.14-7,7s3.14,7,7,7,7-3.14,7-7-3.14-7-7-7Zm0,13.13c-3.38,0-6.12-2.74-6.12-6.12s2.74-6.12,6.12-6.12,6.12,2.74,6.12,6.12-2.74,6.12-6.12,6.12Z" style="stroke-width:0px;"/><path d="m16,12c-2.21,0-4,1.79-4,4s1.79,4,4,4,4-1.79,4-4-1.79-4-4-4Zm0,7c-1.66,0-3-1.34-3-3s1.34-3,3-3,3,1.34,3,3-1.34,3-3,3Z" style="stroke-width:0px;"/></g></svg>